<mxfile host="Electron" modified="2024-04-05T11:27:07.835Z" agent="Mozilla/5.0 (Windows NT 10.0; Win64; x64) AppleWebKit/537.36 (KHTML, like Gecko) draw.io/22.0.3 Chrome/114.0.5735.289 Electron/25.8.4 Safari/537.36" etag="bwIq4RwOemg70cDKNsJL" version="22.0.3" type="device">
  <diagram name="Seite-1" id="DClNnoMCRZdeJGYIzqFU">
    <mxGraphModel dx="819" dy="482" grid="1" gridSize="10" guides="1" tooltips="1" connect="1" arrows="1" fold="1" page="1" pageScale="1" pageWidth="1169" pageHeight="827" math="0" shadow="0">
      <root>
        <mxCell id="0" />
        <mxCell id="1" parent="0" />
        <mxCell id="uuYK5usAmTcPArMvxqHh-6" style="edgeStyle=orthogonalEdgeStyle;rounded=0;orthogonalLoop=1;jettySize=auto;html=1;entryX=0;entryY=0.5;entryDx=0;entryDy=0;" edge="1" parent="1" source="uuYK5usAmTcPArMvxqHh-1" target="uuYK5usAmTcPArMvxqHh-2">
          <mxGeometry relative="1" as="geometry" />
        </mxCell>
        <mxCell id="uuYK5usAmTcPArMvxqHh-1" value="Analysis&lt;br&gt;(Analyse)" style="rounded=0;whiteSpace=wrap;html=1;fillColor=#dae8fc;strokeColor=#6c8ebf;" vertex="1" parent="1">
          <mxGeometry x="160" y="130" width="120" height="60" as="geometry" />
        </mxCell>
        <mxCell id="uuYK5usAmTcPArMvxqHh-7" style="edgeStyle=orthogonalEdgeStyle;rounded=0;orthogonalLoop=1;jettySize=auto;html=1;exitX=0.5;exitY=1;exitDx=0;exitDy=0;entryX=0;entryY=0.5;entryDx=0;entryDy=0;" edge="1" parent="1" source="uuYK5usAmTcPArMvxqHh-2" target="uuYK5usAmTcPArMvxqHh-3">
          <mxGeometry relative="1" as="geometry" />
        </mxCell>
        <mxCell id="uuYK5usAmTcPArMvxqHh-15" style="edgeStyle=orthogonalEdgeStyle;rounded=0;orthogonalLoop=1;jettySize=auto;html=1;exitX=0.5;exitY=0;exitDx=0;exitDy=0;entryX=1;entryY=0.5;entryDx=0;entryDy=0;dashed=1;" edge="1" parent="1" source="uuYK5usAmTcPArMvxqHh-2" target="uuYK5usAmTcPArMvxqHh-1">
          <mxGeometry relative="1" as="geometry" />
        </mxCell>
        <mxCell id="uuYK5usAmTcPArMvxqHh-2" value="Design&lt;br&gt;(Entwurf)" style="rounded=0;whiteSpace=wrap;html=1;fillColor=#dae8fc;strokeColor=#6c8ebf;" vertex="1" parent="1">
          <mxGeometry x="280" y="210" width="120" height="60" as="geometry" />
        </mxCell>
        <mxCell id="uuYK5usAmTcPArMvxqHh-8" style="edgeStyle=orthogonalEdgeStyle;rounded=0;orthogonalLoop=1;jettySize=auto;html=1;entryX=0;entryY=0.5;entryDx=0;entryDy=0;" edge="1" parent="1" source="uuYK5usAmTcPArMvxqHh-3" target="uuYK5usAmTcPArMvxqHh-4">
          <mxGeometry relative="1" as="geometry" />
        </mxCell>
        <mxCell id="uuYK5usAmTcPArMvxqHh-16" style="edgeStyle=orthogonalEdgeStyle;rounded=0;orthogonalLoop=1;jettySize=auto;html=1;exitX=0.5;exitY=0;exitDx=0;exitDy=0;entryX=1;entryY=0.5;entryDx=0;entryDy=0;dashed=1;" edge="1" parent="1" source="uuYK5usAmTcPArMvxqHh-3" target="uuYK5usAmTcPArMvxqHh-2">
          <mxGeometry relative="1" as="geometry" />
        </mxCell>
        <mxCell id="uuYK5usAmTcPArMvxqHh-3" value="Implementation&lt;br&gt;(Realisierung)" style="rounded=0;whiteSpace=wrap;html=1;fillColor=#dae8fc;strokeColor=#6c8ebf;" vertex="1" parent="1">
          <mxGeometry x="400" y="290" width="120" height="60" as="geometry" />
        </mxCell>
        <mxCell id="uuYK5usAmTcPArMvxqHh-9" style="edgeStyle=orthogonalEdgeStyle;rounded=0;orthogonalLoop=1;jettySize=auto;html=1;exitX=0.5;exitY=1;exitDx=0;exitDy=0;entryX=0;entryY=0.5;entryDx=0;entryDy=0;" edge="1" parent="1" source="uuYK5usAmTcPArMvxqHh-4" target="uuYK5usAmTcPArMvxqHh-5">
          <mxGeometry relative="1" as="geometry" />
        </mxCell>
        <mxCell id="uuYK5usAmTcPArMvxqHh-17" style="edgeStyle=orthogonalEdgeStyle;rounded=0;orthogonalLoop=1;jettySize=auto;html=1;exitX=0.5;exitY=0;exitDx=0;exitDy=0;entryX=1;entryY=0.5;entryDx=0;entryDy=0;dashed=1;" edge="1" parent="1" source="uuYK5usAmTcPArMvxqHh-4" target="uuYK5usAmTcPArMvxqHh-3">
          <mxGeometry relative="1" as="geometry" />
        </mxCell>
        <mxCell id="uuYK5usAmTcPArMvxqHh-4" value="Testing&lt;br&gt;(Test)" style="rounded=0;whiteSpace=wrap;html=1;fillColor=#dae8fc;strokeColor=#6c8ebf;" vertex="1" parent="1">
          <mxGeometry x="520" y="370" width="120" height="60" as="geometry" />
        </mxCell>
        <mxCell id="uuYK5usAmTcPArMvxqHh-18" style="edgeStyle=orthogonalEdgeStyle;rounded=0;orthogonalLoop=1;jettySize=auto;html=1;exitX=0.5;exitY=0;exitDx=0;exitDy=0;entryX=1;entryY=0.5;entryDx=0;entryDy=0;dashed=1;" edge="1" parent="1" source="uuYK5usAmTcPArMvxqHh-5" target="uuYK5usAmTcPArMvxqHh-4">
          <mxGeometry relative="1" as="geometry" />
        </mxCell>
        <mxCell id="uuYK5usAmTcPArMvxqHh-5" value="Operation / Maintaineance&lt;br&gt;(Betrieb / Wartung)" style="rounded=0;whiteSpace=wrap;html=1;fillColor=#f8cecc;strokeColor=#b85450;" vertex="1" parent="1">
          <mxGeometry x="640" y="460" width="120" height="60" as="geometry" />
        </mxCell>
        <mxCell id="uuYK5usAmTcPArMvxqHh-10" value="Lastenheft und Pflichtenheft" style="shape=note;whiteSpace=wrap;html=1;backgroundOutline=1;darkOpacity=0.05;size=12;fillColor=#fff2cc;strokeColor=#d6b656;shadow=1;" vertex="1" parent="1">
          <mxGeometry x="110" y="205" width="100" height="70" as="geometry" />
        </mxCell>
        <mxCell id="uuYK5usAmTcPArMvxqHh-11" value="Softwarearchitektur und UML Diagramme" style="shape=note;whiteSpace=wrap;html=1;backgroundOutline=1;darkOpacity=0.05;size=12;fillColor=#fff2cc;strokeColor=#d6b656;shadow=1;" vertex="1" parent="1">
          <mxGeometry x="220" y="280" width="110" height="70" as="geometry" />
        </mxCell>
        <mxCell id="uuYK5usAmTcPArMvxqHh-12" value="Quelltext, Software" style="shape=note;whiteSpace=wrap;html=1;backgroundOutline=1;darkOpacity=0.05;size=12;fillColor=#fff2cc;strokeColor=#d6b656;shadow=1;" vertex="1" parent="1">
          <mxGeometry x="340" y="360" width="110" height="70" as="geometry" />
        </mxCell>
        <mxCell id="uuYK5usAmTcPArMvxqHh-13" value="Testware&lt;br&gt;(Testdaten, Test Cases, Test Reports etc.)" style="shape=note;whiteSpace=wrap;html=1;backgroundOutline=1;darkOpacity=0.05;size=12;fillColor=#fff2cc;strokeColor=#d6b656;shadow=1;" vertex="1" parent="1">
          <mxGeometry x="460" y="440" width="110" height="70" as="geometry" />
        </mxCell>
        <mxCell id="uuYK5usAmTcPArMvxqHh-14" value="Fehlerbehebung, Neue Features hinzufügen, Aktivität der Software aufzeichnen (Logging) und überwachen (Monitoring)" style="shape=note;whiteSpace=wrap;html=1;backgroundOutline=1;darkOpacity=0.05;size=12;fillColor=#fff2cc;strokeColor=#d6b656;shadow=1;" vertex="1" parent="1">
          <mxGeometry x="600" y="530" width="225" height="90" as="geometry" />
        </mxCell>
        <mxCell id="uuYK5usAmTcPArMvxqHh-19" value="Das Wasserfallmodell (sequenzielles Vorgehensmodell)" style="text;html=1;strokeColor=none;fillColor=none;align=left;verticalAlign=middle;whiteSpace=wrap;rounded=0;" vertex="1" parent="1">
          <mxGeometry x="445" y="140" width="310" height="30" as="geometry" />
        </mxCell>
      </root>
    </mxGraphModel>
  </diagram>
</mxfile>
